HIERARCHY
ROOT Hips
{
	OFFSET 0.000000 35.082581 0.000000
	CHANNELS 6 Xposition Yposition Zposition Xrotation Yrotation Zrotation 
	JOINT Spine
	{
		OFFSET 0.000000 6.876099 0.125700
		CHANNELS 3 Xrotation Yrotation Zrotation
		JOINT Spine1
		{
			OFFSET 0.000000 5.730043 0.104720
			CHANNELS 3 Xrotation Yrotation Zrotation
			JOINT Spine1_split
			{
				OFFSET 0.000000 5.730043 0.104720
				CHANNELS 3 Xrotation Yrotation Zrotation
				JOINT Spine2
				{
					OFFSET 0.000000 5.730043 0.104720
					CHANNELS 3 Xrotation Yrotation Zrotation
					JOINT Neck
					{
						OFFSET 0.000000 10.314075 0.188496
						CHANNELS 3 Xrotation Yrotation Zrotation
						JOINT Head
						{
							OFFSET 0.000000 7.643700 -2.377400
							CHANNELS 3 Xrotation Yrotation Zrotation
							JOINT HeadTop_End
							{
								OFFSET 0.000000 43.788605 -13.619600
								CHANNELS 3 Xrotation Yrotation Zrotation
								End Site
								{
									OFFSET 0.000000 0.000000 0.000000
								}
							}
						}
					}
					JOINT LeftShoulder
					{
						OFFSET 2.196100 4.412489 0.087492
						CHANNELS 3 Xrotation Yrotation Zrotation
						JOINT LeftShoulder_split
						{
							OFFSET 2.196100 4.412489 0.087492
							CHANNELS 3 Xrotation Yrotation Zrotation
							JOINT LeftArm
							{
								OFFSET 8.771219 -2.981674 -0.026999
								CHANNELS 3 Xrotation Yrotation Zrotation
								JOINT LeftForeArm
								{
									OFFSET 8.512804 0.000000 -0.000000
									CHANNELS 3 Xrotation Yrotation Zrotation
									JOINT LeftHand
									{
										OFFSET 18.484802 0.000000 -0.000000
										CHANNELS 3 Xrotation Yrotation Zrotation
										JOINT LeftHandThumb1
										{
											OFFSET 2.499420 -1.158070 2.653252
											CHANNELS 3 Xrotation Yrotation Zrotation
											JOINT LeftHandThumb2
											{
												OFFSET 2.370079 -1.368366 1.368366
												CHANNELS 3 Xrotation Yrotation Zrotation
												JOINT LeftHandThumb3
												{
													OFFSET 2.676727 -1.545410 1.545409
													CHANNELS 3 Xrotation Yrotation Zrotation
													JOINT LeftHandThumb4
													{
														OFFSET 1.692226 -0.977005 0.977007
														CHANNELS 3 Xrotation Yrotation Zrotation
														End Site
														{
															OFFSET 0.000000 0.000000 0.000000
														}
													}
												}
											}
										}
										JOINT LeftHandIndex1
										{
											OFFSET 7.924831 -0.457527 2.345128
											CHANNELS 3 Xrotation Yrotation Zrotation
											JOINT LeftHandIndex2
											{
												OFFSET 3.643303 0.000000 0.000000
												CHANNELS 3 Xrotation Yrotation Zrotation
												JOINT LeftHandIndex3
												{
													OFFSET 3.810799 0.000000 0.000000
													CHANNELS 3 Xrotation Yrotation Zrotation
													JOINT LeftHandIndex4
													{
														OFFSET 2.403702 0.000000 0.000000
														CHANNELS 3 Xrotation Yrotation Zrotation
														End Site
														{
															OFFSET 0.000000 0.000000 0.000000
														}
													}
												}
											}
										}
										JOINT LeftHandMiddle1
										{
											OFFSET 8.563995 0.000000 -0.000000
											CHANNELS 3 Xrotation Yrotation Zrotation
											JOINT LeftHandMiddle2
											{
												OFFSET 3.861618 0.000000 0.000000
												CHANNELS 3 Xrotation Yrotation Zrotation
												JOINT LeftHandMiddle3
												{
													OFFSET 3.701603 0.000000 0.000000
													CHANNELS 3 Xrotation Yrotation Zrotation
													JOINT LeftHandMiddle4
													{
														OFFSET 2.322544 0.000000 0.000000
														CHANNELS 3 Xrotation Yrotation Zrotation
														End Site
														{
															OFFSET 0.000000 0.000000 0.000000
														}
													}
												}
											}
										}
										JOINT LeftHandRing1
										{
											OFFSET 8.426460 -0.424637 -3.286992
											CHANNELS 3 Xrotation Yrotation Zrotation
											JOINT LeftHandRing2
											{
												OFFSET 3.126408 0.000000 0.000000
												CHANNELS 3 Xrotation Yrotation Zrotation
												JOINT LeftHandRing3
												{
													OFFSET 3.085026 0.000000 0.000000
													CHANNELS 3 Xrotation Yrotation Zrotation
													JOINT LeftHandRing4
													{
														OFFSET 1.644005 0.000000 0.000000
														CHANNELS 3 Xrotation Yrotation Zrotation
														End Site
														{
															OFFSET 0.000000 0.000000 0.000000
														}
													}
												}
											}
										}
									}
								}
							}
						}
					}
					JOINT RightShoulder
					{
						OFFSET -2.196100 4.412496 0.070690
						CHANNELS 3 Xrotation Yrotation Zrotation
						JOINT RightShoulder_split
						{
							OFFSET -2.196100 4.412496 0.070690
							CHANNELS 3 Xrotation Yrotation Zrotation
							JOINT RightArm
							{
								OFFSET -8.771282 -2.981682 -0.094208
								CHANNELS 3 Xrotation Yrotation Zrotation
								JOINT RightForeArm
								{
									OFFSET -8.494598 0.000000 0.000000
									CHANNELS 3 Xrotation Yrotation Zrotation
									JOINT RightHand
									{
										OFFSET -18.483803 0.000000 0.000001
										CHANNELS 3 Xrotation Yrotation Zrotation
										JOINT RightHandThumb1
										{
											OFFSET -2.527351 -1.008072 2.575253
											CHANNELS 3 Xrotation Yrotation Zrotation
											JOINT RightHandThumb2
											{
												OFFSET -2.321518 -1.340328 1.340329
												CHANNELS 3 Xrotation Yrotation Zrotation
												JOINT RightHandThumb3
												{
													OFFSET -2.657753 -1.534454 1.534455
													CHANNELS 3 Xrotation Yrotation Zrotation
													JOINT RightHandThumb4
													{
														OFFSET -1.807510 -1.043568 1.043567
														CHANNELS 3 Xrotation Yrotation Zrotation
														End Site
														{
															OFFSET 0.000000 0.000000 0.000000
														}
													}
												}
											}
										}
										JOINT RightHandIndex1
										{
											OFFSET -8.811420 0.015533 2.887987
											CHANNELS 3 Xrotation Yrotation Zrotation
											JOINT RightHandIndex2
											{
												OFFSET -3.537502 0.000000 0.000000
												CHANNELS 3 Xrotation Yrotation Zrotation
												JOINT RightHandIndex3
												{
													OFFSET -3.356201 0.000000 0.000000
													CHANNELS 3 Xrotation Yrotation Zrotation
													JOINT RightHandIndex4
													{
														OFFSET -1.933098 0.000000 0.000000
														CHANNELS 3 Xrotation Yrotation Zrotation
														End Site
														{
															OFFSET 0.000000 0.000000 0.000000
														}
													}
												}
											}
										}
										JOINT RightHandMiddle1
										{
											OFFSET -8.178135 0.000000 0.000000
											CHANNELS 3 Xrotation Yrotation Zrotation
											JOINT RightHandMiddle2
											{
												OFFSET -3.901302 0.000000 0.000000
												CHANNELS 3 Xrotation Yrotation Zrotation
												JOINT RightHandMiddle3
												{
													OFFSET -3.909599 0.000000 0.000000
													CHANNELS 3 Xrotation Yrotation Zrotation
													JOINT RightHandMiddle4
													{
														OFFSET -2.376003 0.000000 0.000000
														CHANNELS 3 Xrotation Yrotation Zrotation
														End Site
														{
															OFFSET 0.000000 0.000000 0.000000
														}
													}
												}
											}
										}
										JOINT RightHandRing1
										{
											OFFSET -7.559013 0.014137 -2.865403
											CHANNELS 3 Xrotation Yrotation Zrotation
											JOINT RightHandRing2
											{
												OFFSET -3.449306 0.000000 0.000000
												CHANNELS 3 Xrotation Yrotation Zrotation
												JOINT RightHandRing3
												{
													OFFSET -3.362106 0.000000 0.000000
													CHANNELS 3 Xrotation Yrotation Zrotation
													JOINT RightHandRing4
													{
														OFFSET -2.076401 0.000000 0.000000
														CHANNELS 3 Xrotation Yrotation Zrotation
														End Site
														{
															OFFSET 0.000000 0.000000 0.000000
														}
													}
												}
											}
										}
									}
								}
							}
						}
					}
				}
			}
		}
	}
	JOINT LeftUpLeg
	{
		OFFSET 10.205400 -3.823500 0.155100
		CHANNELS 3 Xrotation Yrotation Zrotation
		JOINT LeftLeg
		{
			OFFSET 0.708757 -12.982077 0.567790
			CHANNELS 3 Xrotation Yrotation Zrotation
			JOINT LeftFoot
			{
				OFFSET -0.708756 -10.717838 -2.184338
				CHANNELS 3 Xrotation Yrotation Zrotation
				JOINT LeftToeBase
				{
					OFFSET 0.108149 -7.191104 7.560241
					CHANNELS 3 Xrotation Yrotation Zrotation
					JOINT LeftToe_End
					{
						OFFSET 0.070230 0.081724 4.490308
						CHANNELS 3 Xrotation Yrotation Zrotation
						End Site
						{
							OFFSET 0.000000 0.000000 0.000000
						}
					}
				}
			}
		}
	}
	JOINT RightUpLeg
	{
		OFFSET -10.205400 -3.823500 0.005500
		CHANNELS 3 Xrotation Yrotation Zrotation
		JOINT RightLeg
		{
			OFFSET -0.708756 -12.982134 0.610632
			CHANNELS 3 Xrotation Yrotation Zrotation
			JOINT RightFoot
			{
				OFFSET 0.708754 -10.717769 -1.945823
				CHANNELS 3 Xrotation Yrotation Zrotation
				JOINT RightToeBase
				{
					OFFSET -0.108140 -7.191069 7.372968
					CHANNELS 3 Xrotation Yrotation Zrotation
					JOINT RightToe_End
					{
						OFFSET -0.070227 0.081735 4.479403
						CHANNELS 3 Xrotation Yrotation Zrotation
						End Site
						{
							OFFSET 0.000000 0.000000 0.000000
						}
					}
				}
			}
		}
	}
}
MOTION
Frames: 5
Frame Time: 0.016667
0.020715 33.421875 -19.742817 168.743525 -64.269765 168.669049 4.936562 1.774950 4.170402 -5.203248 2.467244 -3.030995 0.000000 0.000000 0.000000 -5.047561 2.231929 -3.347159 0.930294 23.548874 10.139635 4.348297 27.823718 -14.089298 0.000000 0.000000 -0.000000 1.079196 -0.344049 0.608078 0.000000 0.000000 0.000000 7.615774 0.677545 -69.161690 8.512027 -19.175254 -8.474007 -0.253751 5.731263 10.881028 -1.204165 -0.037728 2.325158 0.318649 1.093446 0.433688 1.367136 3.087631 0.738694 0.000000 -0.000001 -0.000002 0.780511 2.266546 -9.845911 -0.039198 0.057411 -8.823540 0.004840 0.021889 -11.483926 -0.000005 0.000000 0.000001 -0.057951 1.143081 -15.947764 -0.014727 -0.043619 -10.491573 0.026425 0.018671 -12.894198 0.000000 -0.000001 -0.000000 -0.956196 0.304874 -20.266078 0.002269 0.016816 -13.465745 -0.030261 -0.026585 -16.389117 0.000001 0.000000 0.000000 2.374285 -3.484724 16.761277 0.000000 0.000000 0.000000 13.068530 30.204008 51.934795 13.595700 26.328842 -0.878546 -25.360441 0.110623 -14.410979 2.581842 -11.453560 -2.444562 -0.570752 -0.849106 0.050491 2.109289 -4.858614 -1.153886 -0.000000 -0.000002 0.000003 1.440382 0.413088 28.354752 -0.036423 -0.061713 22.129068 0.006700 -0.030089 21.882652 -0.000002 -0.000001 0.000000 1.194454 -2.816504 28.395484 -0.003758 0.018416 22.137616 0.032957 -0.034188 21.915222 0.000000 -0.000000 -0.000002 2.678412 -6.989703 31.433733 -0.003187 0.002743 24.099375 -0.036630 0.027528 23.863846 -0.000000 0.000000 0.000002 -31.880161 2.808665 15.205260 46.256828 -2.090309 -2.586887 -13.294917 2.084272 -4.574337 2.749737 5.423033 -7.268719 -0.000000 -0.000001 -0.000000 -13.429751 -11.686145 7.835985 24.453944 11.297271 1.389454 -13.847199 -0.043041 -12.580809 -2.307805 -8.055880 0.493678 -0.000000 -0.000002 -0.000000 
-0.227734 33.423740 -20.164574 169.977782 -61.374311 170.036630 5.164850 2.009658 3.989381 -5.105464 2.660206 -2.985250 0.000000 0.000000 0.000000 -4.948701 2.420736 -3.321704 1.055482 22.542846 10.042758 3.926667 26.820355 -13.626391 0.000000 -0.000002 0.000000 1.084988 -0.270529 0.765035 0.000000 0.000000 0.000000 7.759391 1.002655 -69.954558 9.038384 -17.908087 -8.643456 -0.335419 5.197250 10.898095 -1.478770 -0.052887 2.856634 0.423965 1.338722 0.492549 1.663846 3.799694 0.897494 -0.000001 -0.000000 -0.000005 0.776351 2.123257 -10.418613 -0.038687 0.058189 -9.704954 0.005381 0.023813 -12.991740 -0.000001 -0.000000 -0.000001 -0.070184 1.239208 -17.072148 -0.015189 -0.043088 -11.179843 0.026481 0.018095 -14.160533 -0.000000 -0.000000 -0.000000 -0.932969 0.718945 -21.232283 0.001402 0.016851 -14.059880 -0.030573 -0.025423 -17.693667 0.000000 -0.000002 -0.000004 2.402570 -3.497403 16.751761 0.000000 0.000000 0.000000 12.583207 31.110911 52.037763 13.766167 26.236999 -1.171569 -25.494545 0.419211 -14.057166 2.689873 -11.385035 -2.336695 -0.589397 -0.816110 0.061322 2.078749 -4.785325 -1.138261 0.000005 -0.000000 -0.000000 1.424560 0.474532 28.171908 -0.036558 -0.061460 21.925414 0.005992 -0.029996 21.678092 -0.000001 -0.000000 -0.000001 1.214513 -2.843276 28.205633 -0.004082 0.018551 22.050443 0.032220 -0.033610 21.858523 -0.000002 0.000001 0.000001 2.743115 -7.190495 31.250492 -0.003107 0.002946 24.042232 -0.036853 0.027654 23.766593 -0.000001 0.000001 -0.000001 -33.272765 -0.623491 12.708527 45.694823 -2.336411 -2.500162 -11.387328 2.277972 -5.493540 1.754117 6.907944 -7.008086 0.000001 0.000000 0.000000 -13.213903 -10.598100 8.455543 24.060195 13.411902 1.952468 -13.019509 -0.368129 -14.004583 -2.374848 -7.985331 0.467722 -0.000000 -0.000003 -0.000000 
-0.478892 33.419788 -20.602194 171.001818 -58.494607 171.191902 5.362249 2.213671 3.726373 -4.955287 2.804408 -2.879610 0.000000 0.000000 0.000000 -4.801088 2.565721 -3.228154 1.136430 21.321711 9.663834 3.243144 25.509225 -12.836995 -0.000000 0.000001 0.000000 1.090521 -0.182203 0.891428 0.000000 0.000000 0.000000 7.710973 1.275682 -70.804610 9.524826 -16.278617 -8.901410 -0.390390 4.458864 10.944907 -1.769591 -0.071510 3.420114 0.535330 1.598853 0.554608 1.976546 4.555684 1.061950 -0.000001 -0.000002 -0.000004 0.768863 1.971737 -11.025880 -0.038094 0.058896 -10.639444 0.006016 0.025610 -14.590650 0.000000 0.000001 0.000000 -0.080001 1.342123 -18.264394 -0.015692 -0.042493 -11.909583 0.026543 0.017531 -15.503320 -0.000003 -0.000001 0.000001 -0.893372 1.157128 -22.256284 0.000504 0.016852 -14.689852 -0.030896 -0.024224 -19.077012 0.000002 0.000002 -0.000001 2.414816 -3.468814 16.571748 0.000000 0.000000 0.000000 11.779242 32.237837 52.296535 13.724218 25.885329 -1.445379 -25.372606 0.810118 -13.612425 2.749170 -11.300868 -2.257990 -0.586610 -0.825545 0.059886 2.064378 -4.749265 -1.130737 0.000001 0.000001 0.000002 1.416261 0.519344 27.896011 -0.036849 -0.061123 21.624300 0.005107 -0.029902 21.375989 0.000001 -0.000000 -0.000002 1.234003 -2.874391 27.920239 -0.004610 0.018904 21.892957 0.031283 -0.032918 21.738950 -0.000001 -0.000000 -0.000000 2.793572 -7.399039 30.970899 -0.003022 0.003463 23.922101 -0.037509 0.027853 23.596762 0.000001 -0.000000 -0.000002 -34.595127 -4.310087 10.048351 44.561121 -2.107607 -2.366132 -9.387521 2.410896 -5.873678 0.947708 9.160966 -7.568781 0.000001 -0.000002 -0.000000 -12.963100 -9.528993 9.029684 23.743218 15.483381 2.517853 -12.253849 -0.674205 -15.374071 -2.450087 -7.915411 0.444019 0.000000 0.000001 -0.000000 
-0.741515 33.403999 -21.055948 171.858447 -55.619101 172.171133 5.550543 2.402803 3.428265 -4.780150 2.924334 -2.745298 0.000000 0.000000 0.000000 -4.630335 2.689121 -3.101843 1.155757 19.904766 9.110444 2.411542 23.932092 -11.826766 -0.000000 -0.000000 0.000000 1.095809 -0.075119 0.979770 0.000000 0.000000 0.000000 7.590582 1.535503 -71.647373 10.023777 -14.552000 -9.196446 -0.424797 3.666679 10.967955 -2.073315 -0.093871 4.009377 0.651494 1.871045 0.618956 2.301604 5.347032 1.229653 -0.000001 -0.000000 -0.000004 0.757633 1.813761 -11.660794 -0.037460 0.059745 -11.616601 0.006683 0.027262 -16.262358 0.000002 0.000001 -0.000001 -0.085267 1.450673 -19.510861 -0.016159 -0.041860 -12.672596 0.026612 0.016937 -16.907239 -0.000002 -0.000000 0.000000 -0.835505 1.613780 -23.326409 -0.000333 0.016835 -15.348485 -0.031232 -0.023005 -20.523274 -0.000001 -0.000000 0.000001 2.421333 -3.425021 16.328177 0.000000 0.000000 0.000000 10.845218 33.443885 52.653635 13.606754 25.436958 -1.713361 -25.161061 1.234088 -13.135267 2.763432 -11.202516 -2.206393 -0.565029 -0.874827 0.047905 2.063677 -4.748161 -1.130094 0.000002 -0.000006 0.000001 1.414813 0.548687 27.535091 -0.037206 -0.060775 21.233849 0.004033 -0.029842 20.984604 0.000001 -0.000000 -0.000002 1.252665 -2.909477 27.547278 -0.005327 0.019415 21.671074 0.030137 -0.032746 21.561584 -0.000001 -0.000000 -0.000001 2.829548 -7.614537 30.603127 -0.002879 0.004156 23.744116 -0.037215 0.028393 23.360331 0.000002 -0.000000 -0.000001 -36.021441 -7.568478 7.731047 42.973706 -1.895694 -2.206326 -7.138315 2.579019 -6.889014 0.554678 10.423532 -7.666708 0.000000 0.000003 0.000001 -12.698269 -8.486891 9.547383 23.568729 17.513075 3.088804 -11.603347 -0.930544 -16.702623 -2.532272 -7.847297 0.422490 0.000000 -0.000001 0.000000 
-1.014718 33.372890 -21.546961 172.584592 -52.752239 173.006342 5.728679 2.576386 3.103382 -4.581750 3.020534 -2.584860 0.000000 0.000000 0.000000 -4.438203 2.790697 -2.945378 1.042702 18.117350 8.309473 1.368294 21.872812 -10.460867 0.000000 0.000000 -0.000000 1.101100 0.072347 0.986417 0.000000 0.000000 0.000000 7.407078 1.790287 -72.430454 10.581904 -12.799770 -9.501886 -0.425668 2.866466 10.912330 -2.386469 -0.119884 4.617795 0.771166 2.152148 0.684713 2.635255 6.165208 1.398340 -0.000006 0.000003 -0.000006 0.742057 1.651253 -12.316425 -0.036822 0.060597 -12.625603 0.007408 0.028730 -17.988613 0.000002 0.000001 0.000000 -0.085745 1.563605 -20.797979 -0.016615 -0.041189 -13.460494 0.026630 0.016326 -18.356979 0.000000 -0.000000 0.000000 -0.758116 2.083330 -24.431331 -0.001145 0.016830 -16.028605 -0.031537 -0.021810 -22.016906 0.000005 0.000001 -0.000000 2.426409 -3.376594 16.065151 0.000000 0.000000 0.000000 9.859343 34.669764 53.082598 13.469796 24.958413 -1.980122 -24.928220 1.669666 -12.649253 2.736013 -11.091758 -2.179832 -0.526073 -0.960418 0.026227 2.075520 -4.779234 -1.135770 -0.000003 0.000001 0.000002 1.419671 0.563473 27.096860 -0.037598 -0.060325 20.762228 0.002800 -0.029693 20.512147 0.000001 -0.000001 -0.000003 1.270197 -2.948344 27.094855 -0.006055 0.019245 21.390535 0.028877 -0.032794 21.331466 -0.000000 -0.000002 0.000000 2.850813 -7.835928 30.155015 -0.002762 0.004998 23.513285 -0.036667 0.029149 23.063288 0.000000 -0.000002 -0.000004 -37.949009 -10.459453 5.389649 41.008456 -2.225414 -2.039717 -4.150951 2.594456 -7.744665 0.135266 11.683257 -8.104082 0.000000 0.000001 -0.000000 -12.372075 -7.480762 10.059677 23.518151 19.499294 3.652374 -11.081340 -1.124121 -18.042098 -2.619895 -7.781559 0.403158 -0.000001 0.000002 0.000000 
